<?xml version="1.0" encoding="UTF-8" standalone="no" ?>
<svg xmlns="http://www.w3.org/2000/svg" width="50.360px" height="16.864px" viewBox="0 -716.3 2782.3 931.8" xmlns:xlink="http://www.w3.org/1999/xlink"><style>.text{stroke: black;fill:black}</style><defs><path id="MJX-6-NCM-I-1D43F" d="M520 667C520 678 513 683 500 683L354 680L223 683C208 684 200 676 200 659C200 652 203 647 209 646C218 645 226 644 231 644C262 643 279 641 284 640C289 639 292 636 292 631C292 629 291 623 288 613L156 82C150 60 140 47 125 42C119 40 101 39 70 39C49 39 39 31 39 15C39 5 49 0 70 0L527 0C552 0 554 0 561 19L639 233C642 240 643 245 643 248C643 258 638 263 627 263C617 263 612 254 607 240C588 191 570 154 555 131C518 75 455 39 363 39L270 39C259 39 252 39 249 40C242 40 239 42 239 45C239 47 241 54 244 67L377 601C383 624 396 637 415 642C421 643 442 644 478 644C506 644 520 644 520 667Z"/><path id="MJX-6-NCM-I-1D434" d="M137 3C155 3 217 0 236 0C251 0 258 8 258 23C258 32 252 38 239 39C210 40 196 50 196 69C196 78 205 98 224 128C251 173 270 206 283 228L526 228C526 221 527 207 530 185C537 112 541 72 541 67C541 48 519 39 474 39C455 39 446 31 446 15C446 5 452 0 464 0C488 0 564 3 588 3C608 3 679 0 699 0C714 0 721 8 721 24C721 34 712 39 694 39C666 39 649 41 644 44C639 47 635 56 634 71L574 689C571 708 572 716 551 716C539 716 529 710 522 697L178 120C148 70 108 43 59 39C43 38 35 30 35 15C35 5 41 0 52 0C68 0 121 3 137 3M492 577L522 267L307 267Z"/><path id="MJX-6-NCM-N-2062" d=""/><path id="MJX-6-NCM-I-1D447" d="M344 631C344 628 343 621 340 611L208 83C204 68 200 59 197 55C188 44 154 39 94 39C63 39 49 42 49 16C49 5 56 0 69 0C120 0 192 4 235 3L317 2C331 2 386 0 403 0C420 0 428 8 428 24C428 34 416 39 391 39C339 39 309 41 300 46C297 48 295 52 295 58L430 603C433 617 436 626 439 629C443 635 467 638 511 638C566 638 604 634 623 625C642 616 652 595 652 561C652 543 649 517 644 483C642 475 641 469 641 464C641 453 646 447 657 447C666 447 672 456 675 473L702 645C703 650 704 656 704 662C704 672 694 677 673 677L125 677C99 677 97 674 89 655L30 481C27 472 25 466 24 462C24 452 29 447 40 447C48 447 55 455 60 470C85 543 110 588 133 607C159 628 209 638 282 638L321 638C332 638 344 639 344 631Z"/><path id="MJX-6-NCM-I-1D438" d="M199 656C199 646 210 641 231 641C271 641 291 637 291 628C291 625 289 618 286 605L156 82C151 60 141 47 126 42C119 40 101 39 70 39C48 39 38 37 38 16C38 5 49 0 70 0L583 0C607 0 609 2 617 19L657 109C684 171 703 217 714 248C712 257 709 263 698 263C691 263 685 258 681 249C656 190 632 145 608 113C568 59 509 39 415 39L270 39C260 39 253 39 249 40C243 40 240 42 240 45C240 47 242 54 245 67L311 334L406 334C453 334 478 328 483 315C485 310 486 303 486 293C486 280 484 264 479 245C477 240 476 236 476 233C476 223 482 218 493 218C502 218 508 226 512 241L568 473C568 483 563 488 552 488C544 488 538 481 535 467C525 428 512 403 495 391C478 379 450 373 409 373L321 373L379 606C387 640 387 641 429 641L568 641C619 641 654 636 673 626C701 611 715 581 715 536C715 519 714 501 711 484C711 482 711 479 710 475L710 466C710 455 715 450 725 450C735 450 741 459 743 478L763 649C766 677 759 680 732 680L233 680C210 680 199 679 199 656Z"/><path id="MJX-6-NCM-I-1D44B" d="M834 683C817 683 758 680 741 680C721 680 651 683 631 683C616 683 608 675 608 659C608 650 613 645 624 644C648 641 660 633 660 618C660 609 654 598 642 585L486 417C457 485 429 552 400 620C401 622 402 624 405 626C414 636 431 642 455 644C471 646 479 654 479 667C479 678 473 683 460 683C436 683 359 680 335 680C314 680 245 683 224 683C209 683 202 675 202 659C202 649 211 644 229 644C274 644 288 644 300 615L416 342L208 119C205 116 201 112 196 109C155 66 108 42 53 39C36 38 27 29 27 14C30 5 31 0 44 0C61 0 120 3 137 3C158 3 227 0 248 0C263 0 270 8 270 24C270 33 265 38 254 39C230 41 218 50 218 65C218 75 227 89 244 107C306 173 369 239 430 306C464 225 499 145 532 63C531 61 530 59 527 56C518 47 502 42 478 39C463 37 455 29 455 16C455 5 461 0 474 0L599 3C620 3 690 0 708 0C723 0 731 8 731 23C731 33 724 38 709 39C678 39 658 40 651 44C644 48 636 60 628 80L501 383C569 455 620 509 653 546C677 571 693 588 702 595C739 626 780 642 825 644C846 645 851 650 851 669C848 678 847 683 834 683Z"/></defs><g class="text" stroke-width="0" transform="scale(1,-1)"><g data-mml-node="math" data-latex="\LaTeX" data-semantic-type="infixop" data-semantic-role="implicit" data-semantic-annotation="clearspeak:unit;depth:1" data-semantic-id="13" data-semantic-children="0,2,4,6,8" data-semantic-content="9,10,11,12" data-semantic-attributes="latex:\LaTeX" data-semantic-owns="0 9 2 10 4 11 6 12 8" aria-level="0" data-speech-node="true" data-semantic-structure="(13 0 9 2 10 4 11 6 12 8)"><g class="text" data-mml-node="mi" data-latex="L" data-semantic-type="identifier" data-semantic-role="latinletter" data-semantic-font="italic" data-semantic-annotation="clearspeak:simple;nemeth:number;depth:2" data-semantic-id="0" data-semantic-parent="13" data-semantic-attributes="latex:L" aria-level="1" data-speech-node="true"><use data-c="1D43F" xmlns:xlink="http://www.w3.org/1999/xlink" xlink:href="#MJX-6-NCM-I-1D43F"/></g><g data-mml-node="mspace" data-latex="\kern-.325em" data-semantic-type="operator" data-semantic-role="space" data-semantic-annotation="depth:2" data-semantic-id="9" data-semantic-parent="13" data-semantic-operator="infixop,⁢" aria-level="1" data-speech-node="true" transform="translate(681,0)"/><g data-mml-node="mpadded" data-latex="{}" transform="translate(356,0)"><g transform="translate(0,210)"><g data-mml-node="TeXAtom" data-mjx-texclass="ORD"><g data-mml-node="mstyle" transform="scale(0.707)"><g data-mml-node="TeXAtom" data-mjx-texclass="ORD" data-latex="{A}"><g data-mml-node="mi" data-latex="A" data-semantic-type="identifier" data-semantic-role="latinletter" data-semantic-font="italic" data-semantic-annotation="clearspeak:simple;depth:2" data-semantic-id="2" data-semantic-parent="13" data-semantic-attributes="latex:{};texclass:ORD" aria-level="1" data-speech-node="true"><use data-c="1D434" xmlns:xlink="http://www.w3.org/1999/xlink" xlink:href="#MJX-6-NCM-I-1D434"/></g></g></g></g></g></g><g data-mml-node="mspace" data-latex="\kern-.17em" transform="translate(886.3,0)"/><g data-mml-node="mo" data-semantic-type="operator" data-semantic-role="multiplication" data-semantic-annotation="depth:2" data-semantic-id="10" data-semantic-parent="13" data-semantic-added="true" data-semantic-operator="infixop,⁢" aria-level="1" data-speech-node="true" transform="translate(716.3,0)"><use data-c="2062" xmlns:xlink="http://www.w3.org/1999/xlink" xlink:href="#MJX-6-NCM-N-2062"/></g><g data-mml-node="mi" data-latex="T" data-semantic-type="identifier" data-semantic-role="latinletter" data-semantic-font="italic" data-semantic-annotation="clearspeak:simple;depth:2" data-semantic-id="4" data-semantic-parent="13" data-semantic-attributes="latex:T" aria-level="1" data-speech-node="true" transform="translate(716.3,0)"><use data-c="1D447" xmlns:xlink="http://www.w3.org/1999/xlink" xlink:href="#MJX-6-NCM-I-1D447"/></g><g data-mml-node="mspace" data-latex="\kern-.14em" data-semantic-type="operator" data-semantic-role="space" data-semantic-annotation="depth:2" data-semantic-id="11" data-semantic-parent="13" data-semantic-operator="infixop,⁢" aria-level="1" data-speech-node="true" transform="translate(1420.3,0)"/><g data-mml-node="mpadded" data-latex="{}" transform="translate(1280.3,0)"><g transform="translate(0,-215.5)"><g data-mml-node="TeXAtom" data-mjx-texclass="ORD"><g data-mml-node="mi" data-latex="E" data-semantic-type="identifier" data-semantic-role="latinletter" data-semantic-font="italic" data-semantic-annotation="clearspeak:simple;depth:2" data-semantic-id="6" data-semantic-parent="13" data-semantic-attributes="latex:{};texclass:ORD" aria-level="1" data-speech-node="true"><use data-c="1D438" xmlns:xlink="http://www.w3.org/1999/xlink" xlink:href="#MJX-6-NCM-I-1D438"/></g></g></g></g><g data-mml-node="mspace" data-latex="\kern-.115em" transform="translate(2046.3,0)"/><g data-mml-node="mo" data-semantic-type="operator" data-semantic-role="multiplication" data-semantic-annotation="depth:2" data-semantic-id="12" data-semantic-parent="13" data-semantic-added="true" data-semantic-operator="infixop,⁢" aria-level="1" data-speech-node="true" transform="translate(1931.3,0)"><use data-c="2062" xmlns:xlink="http://www.w3.org/1999/xlink" xlink:href="#MJX-6-NCM-N-2062"/></g><g data-mml-node="mi" data-latex="X" data-semantic-type="identifier" data-semantic-role="latinletter" data-semantic-font="italic" data-semantic-annotation="clearspeak:simple;depth:2" data-semantic-id="8" data-semantic-parent="13" data-semantic-attributes="latex:X" aria-level="1" data-speech-node="true" transform="translate(1931.3,0)"><use data-c="1D44B" xmlns:xlink="http://www.w3.org/1999/xlink" xlink:href="#MJX-6-NCM-I-1D44B"/></g></g></g></svg>